<?xml version="1.0" encoding="UTF-8" standalone="no"?>
<!-- Created with Inkscape (http://www.inkscape.org/) -->

<svg
   width="100mm"
   height="100mm"
   viewBox="0 0 100 100"
   version="1.1"
   id="svg1"
   inkscape:version="1.3 (0e150ed6c4, 2023-07-21)"
   sodipodi:docname="QuestionIcon.svg"
   xmlns:inkscape="http://www.inkscape.org/namespaces/inkscape"
   xmlns:sodipodi="http://sodipodi.sourceforge.net/DTD/sodipodi-0.dtd"
   xmlns:xlink="http://www.w3.org/1999/xlink"
   xmlns="http://www.w3.org/2000/svg"
   xmlns:svg="http://www.w3.org/2000/svg">
  <sodipodi:namedview
     id="namedview1"
     pagecolor="#505050"
     bordercolor="#eeeeee"
     borderopacity="1"
     inkscape:showpageshadow="0"
     inkscape:pageopacity="0"
     inkscape:pagecheckerboard="0"
     inkscape:deskcolor="#505050"
     inkscape:document-units="mm"
     inkscape:zoom="1"
     inkscape:cx="197.5"
     inkscape:cy="165.5"
     inkscape:window-width="1920"
     inkscape:window-height="1027"
     inkscape:window-x="-8"
     inkscape:window-y="-8"
     inkscape:window-maximized="1"
     inkscape:current-layer="layer1" />
  <defs
     id="defs1">
    <linearGradient
       id="linearGradient2"
       inkscape:collect="always">
      <stop
         style="stop-color:#25cf2a;stop-opacity:1;"
         offset="0.61503416"
         id="stop2" />
      <stop
         style="stop-color:#188d19;stop-opacity:1;"
         offset="1"
         id="stop3" />
    </linearGradient>
    <radialGradient
       inkscape:collect="always"
       xlink:href="#linearGradient2"
       id="radialGradient3"
       cx="50.000004"
       cy="50"
       fx="50.000004"
       fy="50"
       r="50"
       gradientUnits="userSpaceOnUse" />
  </defs>
  <g
     inkscape:label="Layer 1"
     inkscape:groupmode="layer"
     id="layer1">
    <ellipse
       style="fill:url(#radialGradient3);fill-opacity:1;stroke:#ffffff;stroke-width:4.78688;stroke-linecap:round;stroke-linejoin:round;stroke-dasharray:none;stroke-dashoffset:0;paint-order:stroke markers fill"
       id="path1"
       cx="50.000004"
       cy="50"
       rx="47.60656"
       ry="47.606556" />
    <rect
       style="fill:#ffffff;fill-opacity:1;stroke:#ffffff;stroke-width:2.33959;stroke-linecap:round;stroke-linejoin:round;stroke-dasharray:none;stroke-dashoffset:0;stroke-opacity:1;paint-order:stroke markers fill"
       id="rect1"
       width="7.6474056"
       height="7.6602511"
       x="-53.704895"
       y="-73.831383"
       transform="matrix(-1,2.3121611e-5,-0.00169718,-0.99999856,0,0)" />
    <rect
       style="fill:#ffffff;fill-opacity:1;stroke:#ffffff;stroke-width:2.00887;stroke-linecap:round;stroke-linejoin:round;stroke-dasharray:none;stroke-dashoffset:0;stroke-opacity:1;paint-order:stroke markers fill"
       id="rect1-8"
       width="7.9775615"
       height="5.4139304"
       x="-53.84359"
       y="-60.666321"
       transform="matrix(-1,1.5665022e-5,-0.00250505,-0.99999686,0,0)" />
    <rect
       style="fill:#ffffff;fill-opacity:1;stroke:#ffffff;stroke-width:2.84273;stroke-linecap:round;stroke-linejoin:round;stroke-dasharray:none;stroke-dashoffset:0;stroke-opacity:1;paint-order:stroke markers fill"
       id="rect1-8-1"
       width="6.1598635"
       height="20.289457"
       x="-72.954041"
       y="-30.673672"
       transform="matrix(-0.90674961,-0.42166947,0.46056086,-0.88762813,0,0)" />
    <path
       id="path546"
       style="fill:#ffffff;fill-opacity:1;stroke:#ffffff;stroke-width:2.74165;stroke-linecap:round;stroke-linejoin:round;stroke-dasharray:none;stroke-opacity:1;paint-order:stroke markers fill"
       d="m 50.000025,26.370832 a 11.629228,11.690489 0 0 0 -11.6292,11.690462 11.629228,11.690489 0 0 0 0.111294,1.567883 h 7.011217 a 4.7796292,4.8048085 0 0 1 -0.07944,-0.214505 4.7796292,4.8048085 0 0 1 -0.145068,-0.669743 4.7796292,4.8048085 0 0 1 -0.04874,-0.683635 4.7796292,4.8048085 0 0 1 0.04874,-0.68402 4.7796292,4.8048085 0 0 1 0.145068,-0.669748 4.7796292,4.8048085 0 0 1 0.238325,-0.642353 4.7796292,4.8048085 0 0 1 0.326976,-0.601846 4.7796292,4.8048085 0 0 1 0.408339,-0.548604 4.7796292,4.8048085 0 0 1 0.482407,-0.48495 4.7796292,4.8048085 0 0 1 0.545731,-0.410875 4.7796292,4.8048085 0 0 1 0.598692,-0.328314 4.7796292,4.8048085 0 0 1 0.638988,-0.239581 4.7796292,4.8048085 0 0 1 0.666236,-0.145831 4.7796292,4.8048085 0 0 1 0.680437,-0.04899 4.7796292,4.8048085 0 0 1 0.234486,0.0058 4.7796292,4.8048085 0 0 1 0.233722,0.01736 4.7796292,4.8048085 0 0 1 0.232952,0.02893 4.7796292,4.8048085 0 0 1 0.231032,0.0405 4.7796292,4.8048085 0 0 1 0.229114,0.0517 4.7796292,4.8048085 0 0 1 0.226046,0.06288 4.7796292,4.8048085 0 0 1 0.222591,0.07368 4.7796292,4.8048085 0 0 1 0.219136,0.08488 4.7796292,4.8048085 0 0 1 0.21453,0.09567 4.7796292,4.8048085 0 0 1 0.209542,0.106098 4.7796292,4.8048085 0 0 1 0.203787,0.116123 4.7796292,4.8048085 0 0 1 0.198413,0.126156 4.7796292,4.8048085 0 0 1 0.191888,0.135801 4.7796292,4.8048085 0 0 1 0.184979,0.14506 4.7796292,4.8048085 0 0 1 0.177304,0.154319 4.7796292,4.8048085 0 0 1 0.170014,0.16242 4.7796292,4.8048085 0 0 1 0.161954,0.170911 4.7796292,4.8048085 0 0 1 0.153126,0.178623 4.7796292,4.8048085 0 0 1 0.144302,0.185954 4.7796292,4.8048085 0 0 1 0.135089,0.192515 4.7796292,4.8048085 0 0 1 0.125495,0.199458 4.7796292,4.8048085 0 0 1 0.115518,0.205244 4.7796292,4.8048085 0 0 1 0.105538,0.210645 4.7796292,4.8048085 0 0 1 0.09517,0.215662 4.7796292,4.8048085 0 0 1 0.08442,0.219905 4.7796292,4.8048085 0 0 1 0.07368,0.223762 4.7796292,4.8048085 0 0 1 0.06254,0.227238 4.7796292,4.8048085 0 0 1 0.05144,0.230319 4.7796292,4.8048085 0 0 1 0.03991,0.232252 4.7796292,4.8048085 0 0 1 0.02878,0.234179 4.7796292,4.8048085 0 0 1 0.01728,0.23495 4.7796292,4.8048085 0 0 1 0.0057,0.23611 4.7796292,4.8048085 0 0 1 -0.04874,0.683636 4.7796292,4.8048085 0 0 1 -0.145069,0.669744 4.7796292,4.8048085 0 0 1 -0.07944,0.214505 h 7.011215 A 11.629228,11.690489 0 0 0 61.629207,38.061286 11.629228,11.690489 0 0 0 50.000006,26.370825 Z" />
  </g>
</svg>
